<?xml version="1.0" encoding="UTF-8" standalone="no"?>
<svg
   xmlns:dc="http://purl.org/dc/elements/1.1/"
   xmlns:cc="http://creativecommons.org/ns#"
   xmlns:rdf="http://www.w3.org/1999/02/22-rdf-syntax-ns#"
   xmlns:svg="http://www.w3.org/2000/svg"
   xmlns="http://www.w3.org/2000/svg"
   xmlns:xlink="http://www.w3.org/1999/xlink"
   xmlns:sodipodi="http://sodipodi.sourceforge.net/DTD/sodipodi-0.dtd"
   xmlns:inkscape="http://www.inkscape.org/namespaces/inkscape"
   width="256.0px"
   height="256.0px"
   viewBox="0 0 256.0 256.0"
   version="1.1"
   id="SVGRoot"
   sodipodi:docname="feather.svg"
   inkscape:version="1.0.2-2 (e86c870879, 2021-01-15)"
   inkscape:export-filename="G:\code\rekhtanavees\rekhtanavees\icons\feather.png"
   inkscape:export-xdpi="96"
   inkscape:export-ydpi="96">
  <defs
     id="defs10">
    <linearGradient
       inkscape:collect="always"
       id="linearGradient879">
      <stop
         style="stop-color:#333333;stop-opacity:1"
         offset="0"
         id="stop875" />
      <stop
         style="stop-color:#cccccc;stop-opacity:1"
         offset="1"
         id="stop877" />
    </linearGradient>
    <linearGradient
       inkscape:collect="always"
       xlink:href="#linearGradient879"
       id="linearGradient883"
       x1="0"
       y1="255"
       x2="240"
       y2="0"
       gradientUnits="userSpaceOnUse"
       spreadMethod="reflect" />
    <linearGradient
       inkscape:collect="always"
       xlink:href="#linearGradient879"
       id="linearGradient887"
       gradientUnits="userSpaceOnUse"
       x1="0"
       y1="255"
       x2="240"
       y2="0"
       spreadMethod="reflect"
       gradientTransform="matrix(0.88235294,0,0,0.88235294,-240,-240)" />
    <filter
       inkscape:collect="always"
       style="color-interpolation-filters:sRGB"
       id="filter851"
       x="-0.003"
       width="1.006"
       y="-0.003"
       height="1.006">
      <feGaussianBlur
         inkscape:collect="always"
         stdDeviation="0.28125"
         id="feGaussianBlur853" />
    </filter>
    <filter
       inkscape:collect="always"
       style="color-interpolation-filters:sRGB"
       id="filter1010"
       x="-0.050764528"
       width="1.1015291"
       y="-0.09356324"
       height="1.1871265">
      <feGaussianBlur
         inkscape:collect="always"
         stdDeviation="2.423903"
         id="feGaussianBlur1012" />
    </filter>
    <filter
       inkscape:collect="always"
       style="color-interpolation-filters:sRGB"
       id="filter1014"
       x="-0.047410288"
       width="1.0948206"
       y="-0.066660431"
       height="1.1333209">
      <feGaussianBlur
         inkscape:collect="always"
         stdDeviation="2.423903"
         id="feGaussianBlur1016" />
    </filter>
    <filter
       inkscape:collect="always"
       style="color-interpolation-filters:sRGB"
       id="filter1018"
       x="-0.059012821"
       width="1.1180256"
       y="-0.031869484"
       height="1.063739">
      <feGaussianBlur
         inkscape:collect="always"
         stdDeviation="2.423903"
         id="feGaussianBlur1020" />
    </filter>
  </defs>
  <sodipodi:namedview
     id="base"
     pagecolor="#ffffff"
     bordercolor="#666666"
     borderopacity="1.0"
     inkscape:pageopacity="0.0"
     inkscape:pageshadow="2"
     inkscape:zoom="2.3493125"
     inkscape:cx="68.855751"
     inkscape:cy="115.5229"
     inkscape:document-units="px"
     inkscape:current-layer="layer1"
     inkscape:document-rotation="0"
     showgrid="true"
     inkscape:window-width="1920"
     inkscape:window-height="1017"
     inkscape:window-x="-8"
     inkscape:window-y="-8"
     inkscape:window-maximized="1">
    <inkscape:grid
       type="xygrid"
       id="grid19" />
  </sodipodi:namedview>
  <metadata
     id="metadata13">
    <rdf:RDF>
      <cc:Work
         rdf:about="">
        <dc:format>image/svg+xml</dc:format>
        <dc:type
           rdf:resource="http://purl.org/dc/dcmitype/StillImage" />
        <dc:title />
      </cc:Work>
    </rdf:RDF>
  </metadata>
  <g
     inkscape:label="Layer 1"
     id="layer1"
     sodipodi:insensitive="true">
    <rect
       style="fill:url(#linearGradient883);fill-opacity:1;stroke:#000000;stroke-width:0.5;stroke-linecap:square;stroke-opacity:0.5;paint-order:fill markers stroke"
       id="rect50"
       width="255"
       height="255"
       x="0"
       y="0"
       rx="32"
       ry="32"
       inkscape:label="rectOuter" />
    <rect
       style="fill:url(#linearGradient887);fill-opacity:1;stroke:#000000;stroke-width:0.2;stroke-linecap:square;stroke-miterlimit:4;stroke-dasharray:none;stroke-opacity:0.25;paint-order:fill markers stroke;filter:url(#filter851)"
       id="rect885"
       width="225"
       height="225"
       x="-240"
       y="-240"
       rx="28.235294"
       ry="28.235294"
       transform="scale(-1)"
       inkscape:label="rectInner" />
    <path
       id="path853"
       style="display:inline;fill:#000000;fill-opacity:1;stroke:#000000;stroke-width:0.5;stroke-miterlimit:4;stroke-dasharray:none;stroke-opacity:0.5;filter:url(#filter1018);opacity:0.7"
       inkscape:label="pathFeatherShadow"
       d="m 126.89453,28.402344 c -2.11001,0.468421 -4.07427,1.443063 -6.07122,2.251631 -5.36218,2.325539 -10.55432,5.326921 -14.53611,9.675889 -3.63442,3.825984 -6.25976,8.460796 -8.505377,13.201494 -0.931504,1.872448 -1.712054,3.826965 -2.941979,5.535048 -1.421135,2.095474 -2.843675,4.350848 -5.03429,5.717394 -0.526078,0.310752 -0.682078,-0.579129 -0.885632,-0.883409 -0.505993,-1.241746 -1.012998,-2.483083 -1.519531,-3.72461 -3.374055,3.818021 -6.802763,7.628836 -9.488359,11.98063 -3.35184,5.293074 -5.813886,11.172282 -7.040938,17.324058 -1.670385,0.667145 -3.389407,1.409231 -4.558624,2.838413 -2.330883,2.585037 -3.498087,6.059407 -3.564423,9.511198 -0.383577,-0.44268 -0.609733,-1.15353 -1.31712,-1.04616 -1.310143,-0.36584 -2.392219,0.68733 -3.063144,1.68575 -2.037711,2.56454 -2.840669,5.79246 -3.9107,8.82309 -0.964031,2.98823 -2.348455,5.81893 -4.01805,8.47387 -0.355034,0.48882 0.226343,1.07719 0.288564,1.60968 -1.004444,-1.03394 -2.10157,-2.2224 -3.141659,-3.31576 0.446779,2.48487 0.862644,4.97588 1.328124,7.45703 -0.29721,-0.41863 -0.595429,-0.9465 -1.000089,-1.21479 -1.041534,-0.0814 -2.08327,-0.16023 -3.124911,-0.24029 0.08127,1.46295 0.190832,2.92118 0.57691,4.34053 1.000965,4.86038 1.785007,9.79649 1.707135,14.77349 0.06114,3.75202 -0.166031,7.51038 -0.854119,11.20338 -1.621338,9.57904 -5.095521,18.69304 -7.853754,27.97362 -2.759117,9.00459 -5.259445,18.085 -7.671875,27.1875 0.579951,0.42848 1.094725,1.06214 1.710861,1.3712 1.637267,0.0416 2.935673,-1.09085 4.207108,-1.96886 3.618911,-2.73959 5.686266,-6.91789 7.421635,-10.99772 3.670575,-8.4253 6.324781,-17.23734 9.291469,-25.92154 0.726608,-2.46032 2.477777,-4.54916 4.728086,-5.7636 1.657433,-0.95294 3.571195,-1.45137 5.48609,-1.29437 2.772561,-0.0118 5.279767,1.43258 7.546232,2.88494 1.502024,0.94388 2.822297,2.15612 4.235883,3.20244 1.555201,0.70743 3.110403,1.41485 4.665605,2.12227 -0.713109,-1.69341 -1.297619,-3.45977 -2.090332,-5.10802 -2.524967,-3.37379 -5.571968,-6.43019 -9.188712,-8.62415 -1.28603,-0.74486 -2.639572,-1.37032 -4.02955,-1.89478 7.291864,-3.41533 13.130168,-9.29109 17.828811,-15.72251 1.18311,-1.67455 2.431679,-3.31805 3.427049,-5.11343 0.216896,-1.51887 0.433578,-3.03776 0.65039,-4.55664 -1.851583,1.1219 -3.737492,2.2 -5.47321,3.44483 -2.025112,1.22028 -4.373301,2.12639 -6.776687,1.77848 -0.858311,-0.0682 -1.683847,-0.34909 -2.462993,-0.70378 6.472501,-1.18224 12.071773,-5.17775 16.418376,-9.97582 4.51326,-4.95531 7.957984,-10.76826 10.894746,-16.76492 0.65267,-1.2675 1.331324,-2.53666 1.567494,-3.96015 0.20776,-0.81259 0.41553,-1.62519 0.62329,-2.43778 -0.39117,0.0818 -1.739842,0.83069 -0.96341,0.0991 5.55777,-6.380914 9.72637,-13.888107 12.60522,-21.82713 0.22605,-0.453239 0.28203,-1.096661 0.61443,-1.422581 4.02848,-0.755991 7.74233,-2.849459 10.64057,-5.726455 1.11128,-1.075945 2.29086,-2.120808 3.05631,-3.486226 -0.3426,-0.939157 -0.68376,-1.878846 -1.02539,-2.818359 -1.13349,0.417007 -2.37151,0.661543 -3.24559,1.560506 -1.65339,1.221951 -3.42815,2.372716 -5.43019,2.919963 0.95266,-1.48939 1.71173,-3.115787 2.59666,-4.625003 3.56252,-2.486526 6.8716,-5.758271 8.12795,-10.033201 0.86465,-2.891676 0.96364,-5.95993 0.80395,-8.949839 -0.32788,-1.880652 -0.65576,-3.761305 -0.98363,-5.641957 -0.96984,1.87028 -2.06261,3.687081 -2.95558,5.590797 -0.92046,3.050229 -2.49044,6.160828 -5.35692,7.793968 -1.1846,0.687763 -2.50848,1.112184 -3.85352,1.347656 5.74726,-5.342997 9.19754,-12.669763 11.31315,-20.120328 0.67344,-2.511361 1.40022,-5.021253 1.86849,-7.57889 -0.0375,-0.528942 0.20701,-1.249275 -0.001,-1.662406 -0.7572,-0.16262 -1.50948,-0.705329 -2.29183,-0.554391 z" />
    <path
       style="display:inline;fill:#ffffff;fill-opacity:1;stroke:none;stroke-width:0.5;stroke-miterlimit:4;stroke-dasharray:none;stroke-opacity:0.5"
       d="m 32.946914,208.8382 c 0,-0.15442 3.442388,-12.69434 4.376042,-15.9411 1.891076,-6.57619 3.888118,-13.11127 6.3183,-20.67591 3.014724,-9.38419 4.465294,-15.55212 5.197192,-22.09874 0.320642,-2.86808 0.319774,-9.84813 -0.0016,-12.74764 -0.394212,-3.55683 -0.979387,-7.01125 -1.87826,-11.0878 -0.0483,-0.2191 0.232642,0.19918 0.624339,0.92952 1.120107,2.08847 2.033559,3.35225 3.409609,4.71729 0.906816,0.89954 1.546966,1.40655 2.216765,1.75566 0.793945,0.41384 2.201808,0.89679 2.614221,0.89679 0.06274,0 -0.242055,-0.43324 -0.677335,-0.96272 -1.091174,-1.32735 -2.195014,-3.06301 -2.873728,-4.51857 -0.583273,-1.25089 -1.291837,-3.32585 -1.461077,-4.27864 l -0.09435,-0.53115 1.263962,1.33887 c 0.695178,0.73638 1.761098,1.75877 2.36871,2.27198 1.375597,1.16191 4.134109,3.23035 4.208647,3.15583 0.03048,-0.0305 -0.185154,-0.31648 -0.479223,-0.6355 -1.984786,-2.15324 -4.231073,-6.00953 -5.208127,-8.94098 l -0.405409,-1.21637 0.602792,-1.01959 c 1.565605,-2.64811 2.452547,-4.72826 3.90674,-9.16254 0.526914,-1.60673 1.224014,-3.46062 1.549101,-4.11975 0.595074,-1.2065 1.950816,-3.11251 2.293421,-3.22427 0.101454,-0.0332 0.153211,-0.008 0.115009,0.0566 -0.10105,0.16994 0.12675,1.68391 0.430987,2.86437 0.554596,2.15183 1.807181,5.45721 3.135413,8.27386 L 65,115 l 0.106621,-1.19508 c 0.10058,-1.12768 0.05509,-2.38683 -0.304748,-8.43438 -0.30399,-5.10885 0.253041,-7.83501 2.183669,-10.6871 0.709349,-1.04789 1.687231,-1.98946 2.487283,-2.39487 0.355237,-0.18001 0.667021,-0.32727 0.692873,-0.32727 0.02579,0 0.0016,0.31369 -0.0522,0.69711 -0.359427,2.52376 0.191302,5.04587 1.401049,6.416 l 0.46104,0.52216 0.0063,-1.55302 c 0.01563,-4.38857 0.799677,-9.082085 2.259905,-13.52823 2.221,-6.762505 5.933393,-13.069355 11.279358,-19.161969 l 1.250856,-1.425561 0.307751,0.756438 c 0.82428,2.026025 2.096971,2.653756 3.730244,1.839863 0.857182,-0.427154 2.29859,-1.753965 3.43295,-3.160015 1.231219,-1.52611 3.528159,-5.035832 3.966289,-6.060472 0.62911,-1.471242 2.92722,-6.100465 3.79043,-7.635307 3.24514,-5.769935 7.04792,-9.966695 11.88234,-13.113299 2.88052,-1.874865 6.70819,-3.753903 11.15418,-5.475696 1.26847,-0.491236 2.13943,-0.763822 2.16138,-0.676444 0.0546,0.217214 -1.32404,5.681779 -2.02119,8.011629 -2.97074,9.928117 -7.54607,16.834225 -14.11706,21.308658 l -1.02816,0.70011 1.19508,0.103729 c 1.5981,0.138691 3.95881,0.0058 5.53981,-0.311728 4.93327,-0.990958 8.19193,-4.049951 10.00402,-9.391042 l 0.4372,-1.288698 0.009,1.678973 c 0.0336,5.669065 -1.22074,9.083907 -4.5555,12.401826 -0.73899,0.735263 -1.95825,1.780483 -2.70947,2.322714 l -1.36589,0.985871 -1.06657,2.061133 c -0.58662,1.133618 -1.58535,2.83709 -2.21941,3.785494 -0.63405,0.948386 -1.16994,1.761632 -1.19088,1.807211 -0.0814,0.177422 1.28273,0.444081 2.22906,0.435671 1.82593,-0.01625 3.88569,-0.794004 6.37382,-2.406862 0.62078,-0.402398 1.41253,-0.968487 1.75943,-1.257968 1.22178,-1.019503 0.61013,-0.250394 -1.19779,1.506213 -1.00687,0.978272 -2.37198,2.147848 -3.03781,2.602698 -2.25527,1.540568 -4.77691,2.598886 -7.13544,2.994715 l -1.04679,0.175688 -0.82326,2.25098 c -3.22009,8.804537 -7.19445,15.617127 -12.89443,22.102787 -2.50045,2.84513 -6.734596,6.83009 -9.783612,9.20784 -1.094736,0.85371 -1.526751,1.28185 -0.863122,0.85538 0.164325,-0.1057 1.314596,-0.79165 2.556166,-1.52451 6.365738,-3.75761 8.206238,-4.82513 8.247658,-4.78371 0.0817,0.0817 -3.06347,6.22685 -4.126929,8.06313 -6.842955,11.81589 -14.627716,18.51453 -23.215906,19.97682 -0.715883,0.12192 -2.085608,0.26314 -3.043842,0.31388 l -1.742314,0.0924 1.118418,0.9406 c 1.938164,1.62999 3.435763,2.48432 5.262528,3.00211 1.385701,0.39274 3.654983,0.41666 5.084652,0.0536 1.796598,-0.45627 4.009876,-1.52969 5.501224,-2.66807 0.335136,-0.25581 0.639745,-0.46511 0.676914,-0.46511 0.125515,0 -2.319738,3.56858 -3.706548,5.40917 -6.608621,8.77089 -13.960532,14.24099 -21.642393,16.10276 -0.574886,0.13926 -1.069413,0.27748 -1.098944,0.30701 -0.02951,0.0296 0.351205,0.0949 0.84607,0.14537 3.101824,0.31611 7.221982,1.79751 10.022164,3.60344 2.322083,1.49761 5.294493,4.28761 7.141406,6.70313 l 0.860241,1.12521 -0.705847,-0.59754 c -2.522733,-2.1356 -5.226452,-3.89034 -7.382477,-4.79119 -2.133255,-0.89135 -3.063672,-1.08783 -5.185013,-1.09485 -1.616887,-0.004 -2.029277,0.0403 -3.1661,0.35071 -2.396722,0.65444 -4.750797,2.11948 -6.242443,3.88497 -1.496509,1.77123 -1.799229,2.44728 -3.682276,8.22337 -3.898818,11.95929 -6.079057,17.86259 -8.795566,23.81513 -2.151656,4.71485 -4.318758,7.35712 -7.625737,9.29781 -0.383423,0.22503 -0.697138,0.36303 -0.697138,0.30671 z m 4.605513,-7.36001 c 1.883144,-2.82426 4.024573,-8.49653 8.208919,-21.74403 2.801806,-8.87043 5.214704,-15.92599 7.901593,-23.10509 13.775457,-36.80673 31.847456,-70.03373 56.782251,-104.399301 3.4333,-4.731826 9.30765,-12.544873 9.98674,-13.282641 0.18417,-0.200083 0.30135,-0.39729 0.26041,-0.438243 -0.10806,-0.108022 -5.4855,5.281566 -7.2922,7.308631 -13.07115,14.665519 -27.363134,37.258606 -41.789684,66.062004 -11.773358,23.50615 -21.312401,46.18545 -27.087914,64.40216 -3.040553,9.59029 -7.843332,26.02643 -7.60514,26.02643 0.04493,0 0.330669,-0.37346 0.635025,-0.82992 z"
       id="path40"
       inkscape:label="pathFeather" />
    <g
       aria-label="ریختہ"
       id="text857"
       style="font-style:normal;font-weight:normal;font-size:91.6278px;line-height:1.25;font-family:sans-serif;fill:#000000;fill-opacity:1;stroke:#000000;stroke-width:0.5;stroke-miterlimit:4;stroke-dasharray:none;stroke-opacity:0.5;filter:url(#filter1010);opacity:0.7"
       inkscape:label="txtRekhtaShadow">
      <path
         id="path880"
         style="font-style:normal;font-variant:normal;font-weight:normal;font-stretch:normal;font-family:'Jameel Noori Nastaleeq';-inkscape-font-specification:'Jameel Noori Nastaleeq';fill:#000000;fill-opacity:1;stroke:#000000;stroke-width:0.5;stroke-miterlimit:4;stroke-dasharray:none;stroke-opacity:0.5"
         d="m 222.60156,79.921875 c -1.51188,-0.03504 -2.84683,1.109817 -3.15893,2.571673 -1.35776,3.769589 -2.55321,7.6036 -4.0981,11.302105 -1.06133,2.34 -2.2808,4.697978 -4.11676,6.525777 -1.29346,1.12199 -2.68265,2.15521 -4.01298,3.08801 -3.07096,2.16313 -6.30044,4.08616 -9.49059,6.06201 -1.28394,0.81207 -2.20914,2.58531 -1.35208,4.0074 0.71697,1.34559 2.45772,1.71231 3.82396,1.26235 2.64177,-0.52086 5.28592,-1.02689 7.96603,-1.30761 1.09941,-0.16174 2.46513,-0.19249 3.64386,-0.48335 2.41568,-0.51693 4.48835,-2.20283 5.55455,-4.42238 3.7364,-6.68231 5.90529,-14.103586 7.618,-21.525907 0.30515,-1.773306 0.85851,-3.652894 0.32756,-5.427919 -0.41124,-1.089959 -1.56664,-1.717609 -2.70452,-1.652159 z" />
      <path
         id="path882"
         style="font-style:normal;font-variant:normal;font-weight:normal;font-stretch:normal;font-family:'Jameel Noori Nastaleeq';-inkscape-font-specification:'Jameel Noori Nastaleeq';fill:#000000;fill-opacity:1;stroke:#000000;stroke-width:0.5;stroke-miterlimit:4;stroke-dasharray:none;stroke-opacity:0.5"
         d="m 159.15039,58.146484 c -2.01765,2.45502 -4.03471,4.910525 -6.05273,7.365235 -0.46213,1.180791 -0.32098,2.612639 0.63672,3.509765 1.19685,1.31388 2.65448,2.36103 4.0118,3.510951 1.45087,1.172053 3.22348,1.904567 5.0835,2.067451 0.6817,-0.4093 1.25604,-1.167527 1.89742,-1.710358 1.83761,-1.743368 3.52882,-3.651774 4.99685,-5.712389 0.69742,-1.005507 0.76807,-2.267468 0.59832,-3.442764 -2.51074,-1.851699 -4.96764,-3.777936 -7.47266,-5.634766 -0.89036,-0.626908 -1.99116,-0.721846 -3.04492,-0.748047 -0.2181,0.264974 -0.4362,0.529948 -0.6543,0.794922 z m 27.37695,6.330078 c -4.68301,3.593982 -10.36355,5.429801 -15.70629,7.777829 -6.25531,2.719512 -12.22177,6.530886 -16.49293,11.931156 -1.06087,1.377376 -2.05945,2.833161 -2.80716,4.399129 -0.3415,1.304728 -0.27382,3.045351 1.05716,3.76298 0.91406,0.465318 2.01493,0.459189 3.00475,0.733405 2.42027,0.491148 4.84758,0.949261 7.28236,1.362298 -2.31291,1.900022 -4.46022,4.049645 -7.13678,5.448664 -1.32689,0.729937 -2.93351,1.531977 -4.43743,0.797427 -0.46235,-1.345889 -1.53984,-2.650544 -3.06055,-2.705075 -0.5916,0.0416 -1.3655,-0.124136 -1.73494,0.448654 -1.80137,2.020991 -4.39507,3.745881 -7.22014,3.354081 -2.49058,-0.50212 -4.75398,-1.852218 -7.32031,-2.044922 -3.19441,-0.270474 -6.35215,0.883462 -9.07337,2.477082 -4.79016,2.89513 -8.36413,7.42756 -11.09134,12.2416 -0.32421,0.73568 -0.99598,1.38354 -0.83334,2.24304 0.0497,0.60424 -0.204,1.32251 0.39521,1.7202 0.75846,1.06531 2.163,1.08733 3.34307,1.10323 2.24408,-2.12943 4.16775,-4.7625 7.0476,-6.08287 2.37374,-0.88962 5.09124,-0.35991 7.28738,0.78269 1.38985,0.89464 3.12388,0.97929 4.73338,1.058 4.55457,-0.017 8.62615,-2.59213 11.85014,-5.60912 0.42517,-0.24566 0.80295,-1.21589 1.24054,-0.50057 0.94474,1.02246 2.38512,1.32423 3.7101,1.52961 1.90318,0.25422 3.80403,-0.49823 5.20545,-1.76895 5.19153,-3.94501 10.05804,-8.31022 15.36771,-12.099025 2.13286,-1.251037 4.4621,-2.567901 5.66708,-4.823433 0.5574,-0.96628 0.29236,-2.225617 -0.27149,-3.134766 -0.86885,-1.399051 -2.66472,-1.31622 -4.08488,-1.652051 -3.29341,-0.603121 -6.59443,-1.173411 -9.91512,-1.607714 3.34788,-2.400084 7.30921,-3.711255 11.12478,-5.163361 4.27796,-1.577187 8.64176,-3.321981 12.02952,-6.475311 1.52505,-1.402485 2.82546,-3.038979 3.97656,-4.753907 0.66572,-1.054805 0.85005,-2.304975 0.86914,-3.529296 -0.68693,-0.828772 -1.56333,-1.632698 -2.71082,-1.615544 -0.55751,-0.16387 -0.8846,0.02061 -1.29504,0.39484 z m -45.99023,11.701172 c -1.16667,1.42448 -2.33333,2.848959 -3.5,4.273438 -2.24916,-1.576561 -4.46909,-3.19623 -6.61133,-4.916016 -0.73846,0.05389 -1.57968,-0.105267 -2.2556,0.07827 -2.18546,2.746709 -4.37316,5.491626 -6.55885,8.238141 -0.19753,0.699514 -0.39659,1.398594 -0.59571,2.097657 1.86272,2.000069 3.68926,4.115213 6.10996,5.462927 1.46729,1.100993 3.49928,1.699152 5.24467,1.0042 1.30825,-1.325045 2.56976,-2.695431 3.76061,-4.127284 1.8542,1.851909 4.22393,3.076451 6.53711,4.25 1.41237,0.600592 3.04212,-0.237719 3.86261,-1.437539 1.89679,-2.258846 3.82011,-4.514591 5.38153,-7.025351 0,-0.759115 0,-1.518229 0,-2.277344 -2.82056,-1.869322 -5.57995,-3.853323 -8.03516,-6.191406 -0.88816,-0.08314 -1.77605,-0.169106 -2.66406,-0.253906 -0.22526,0.274739 -0.45052,0.549479 -0.67578,0.824218 z m 27.94141,24.035156 c -2.3957,2.62708 -4.79263,5.25304 -7.1875,7.88086 0.21523,1.45148 0.75038,2.87392 1.80859,3.92578 1.36549,1.34059 2.68289,2.7729 4.39627,3.67741 1.35585,0.82058 3.09983,1.53099 4.63559,0.81466 1.26641,-1.18913 2.53262,-2.38968 3.77283,-3.59949 1.36462,1.52005 3.03839,2.72948 4.64843,3.9668 1.34968,0.80246 3.18878,1.28311 4.59809,0.40706 2.28597,-2.22804 4.57156,-4.46141 6.68902,-6.85238 0.25191,-0.87706 0.50036,-1.7551 0.75,-2.63281 -2.86131,-2.41056 -5.73073,-4.81369 -8.48632,-7.3457 -0.79786,0.0489 -1.68031,-0.0964 -2.42551,0.0732 -1.3846,1.48955 -2.76837,2.97986 -4.15262,4.46973 -2.17666,-1.73257 -4.324,-3.50767 -6.33008,-5.437503 -0.71844,0.04971 -1.52389,-0.09787 -2.18852,0.07384 -0.17609,0.192833 -0.35218,0.385673 -0.52827,0.578503 z" />
    </g>
    <text
       xml:space="preserve"
       style="font-style:normal;font-weight:normal;font-size:91.6278px;line-height:1.25;font-family:sans-serif;fill:#ffffff;fill-opacity:1;stroke:none;stroke-width:0.5;stroke-miterlimit:4;stroke-dasharray:none;stroke-opacity:0.5;"
       x="108.84122"
       y="113.55147"
       id="text44"
       inkscape:label="txtRekhta"><tspan
         sodipodi:role="line"
         id="tspan42"
         x="108.84122"
         y="113.55147"
         style="font-style:normal;font-variant:normal;font-weight:normal;font-stretch:normal;font-family:'Jameel Noori Nastaleeq';-inkscape-font-specification:'Jameel Noori Nastaleeq';fill:#ffffff;fill-opacity:1;stroke:none;stroke-width:0.5;stroke-miterlimit:4;stroke-dasharray:none;stroke-opacity:0.5;">ریختہ</tspan></text>
    <g
       aria-label="نویس"
       id="text861"
       style="font-style:normal;font-weight:normal;font-size:91.9707px;line-height:1.25;font-family:sans-serif;fill:#000000;fill-opacity:1;stroke:#000000;stroke-width:0.5;stroke-miterlimit:4;stroke-dasharray:none;stroke-opacity:0.5;filter:url(#filter1014);opacity:0.7"
       inkscape:label="textNaveesShadow">
      <path
         id="path875"
         style="font-style:normal;font-variant:normal;font-weight:normal;font-stretch:normal;font-family:'Jameel Noori Nastaleeq';-inkscape-font-specification:'Jameel Noori Nastaleeq';fill:#000000;fill-opacity:1;stroke:#000000;stroke-width:0.5;stroke-miterlimit:4;stroke-dasharray:none;stroke-opacity:0.5"
         d="m 211.7207,129.95703 c -2.45101,2.76109 -4.88555,5.53734 -7.23632,8.38477 0.55169,1.55953 1.37635,3.04332 2.66015,4.11914 1.51186,1.40407 3.13622,2.71003 4.91406,3.75976 1.49951,0.8751 3.54377,0.52945 4.63435,-0.83154 1.87129,-2.11861 3.74215,-4.23759 5.6137,-6.35596 0.38698,-1.15355 0.63826,-2.6386 -0.37162,-3.54862 -2.69721,-1.7687 -5.04773,-3.99559 -7.38424,-6.20333 -0.74414,0 -1.48828,0 -2.23242,0 -0.19922,0.22526 -0.39844,0.45052 -0.59766,0.67578 z m 7.90235,15.50195 c -1.35429,-0.0882 -2.41529,0.92745 -3.03425,2.03126 -1.61134,2.39282 -3.21225,4.89261 -3.96185,7.70312 -0.35587,3.72414 -0.2286,7.47599 -0.28348,11.21286 0.17137,2.08906 -1.0554,3.99589 -2.64425,5.24417 -0.60127,-2.78683 -1.85162,-5.65594 -4.25244,-7.33585 -1.47142,-0.78222 -3.2784,-0.86162 -4.87511,-0.46948 -2.00606,0.62202 -3.36818,2.56863 -3.81867,4.54374 -0.67297,3.48636 -3.12927,6.52086 -2.99323,10.17761 0.10645,1.71434 0.67262,3.52655 2.11132,4.58398 1.63946,1.3695 3.85636,1.80829 5.94532,1.6875 0.36655,0.42656 0.35449,1.02008 -0.062,1.40989 -0.96272,1.47375 -2.69343,2.05716 -4.16122,2.8837 -4.20717,2.1658 -8.67176,3.8907 -12.58925,6.57555 -1.17682,0.85916 -1.68433,2.4312 -1.24069,3.81847 0.0513,0.60011 0.83442,0.7391 1.20553,1.13856 0.58693,0.35201 1.23139,0.68117 1.91807,0.41294 4.12708,-0.67762 8.2586,-1.34378 12.37026,-2.09787 2.51524,-0.53843 5.11123,-1.8828 6.14035,-4.37947 1.94779,-3.8997 3.47623,-8.02933 4.30179,-12.31646 2.87639,-2.26539 5.02615,-5.30428 6.99414,-8.35547 2.78484,-4.78668 3.54659,-10.38171 4.11835,-15.79778 0.47491,-4.03289 0.9494,-8.06584 1.42462,-12.0987 -0.871,-0.18078 -1.72053,-0.53081 -2.61328,-0.57227 z" />
      <path
         id="path877"
         style="font-style:normal;font-variant:normal;font-weight:normal;font-stretch:normal;font-family:'Jameel Noori Nastaleeq';-inkscape-font-specification:'Jameel Noori Nastaleeq';fill:#000000;fill-opacity:1;stroke:#000000;stroke-width:0.5;stroke-miterlimit:4;stroke-dasharray:none;stroke-opacity:0.5"
         d="m 175.82422,125.02734 c -1.40217,0.0726 -2.24354,1.41026 -2.55893,2.6473 -1.30974,3.03127 -2.92612,6.05197 -3.25552,9.39177 -0.10536,1.36665 0.23123,2.71881 0.45441,4.04347 -0.14425,2.14943 0.37315,4.26517 0.46551,6.39989 -0.17992,1.98852 -1.86928,3.599 -3.69141,4.21093 -0.42238,0.10228 -1.15037,0.35062 -0.77148,-0.3164 0.3517,-1.45498 -0.57615,-3.17628 -2.11608,-3.40106 -1.55453,-0.35282 -2.99054,0.90794 -3.39447,2.34629 -0.28595,0.65056 -0.69989,1.38666 -1.2082,1.80477 -0.13949,-0.89712 -0.78,-1.56992 -1.3125,-2.25977 -1.15714,0.0272 -2.56381,-0.002 -3.32664,1.01325 -0.81356,1.39464 -1.47357,2.91754 -2.49368,4.17034 -0.73661,0.53223 -1.73975,0.84421 -2.60351,0.75586 -0.26334,-1.46949 -1.81216,-2.47397 -3.25977,-2.11523 -0.77744,0.1519 -1.48962,0.67175 -1.948,1.28258 -0.55895,2.35566 -1.24038,4.71378 -1.48142,7.1217 0.73866,7.14915 0.30017,14.69333 -2.95962,21.22098 -2.9624,5.90353 -8.29403,10.68038 -14.62503,12.66352 -3.94159,1.18857 -8.25316,1.30129 -12.21249,0.13309 -3.22444,-1.22479 -5.31871,-4.60499 -5.43218,-7.99418 -0.56996,-5.89608 1.13792,-11.8786 3.07476,-17.26753 0.38341,-0.88855 0.68272,-1.7952 0.64937,-2.77481 0.28683,-1.59629 -1.30335,-3.15869 -2.90523,-2.88926 -0.69094,-0.0639 -1.21338,0.15621 -1.46576,0.8317 -1.30786,1.9067 -2.41842,3.95379 -3.11519,6.16529 -2.37749,6.52127 -4.382407,13.33533 -4.388159,20.33384 0.05479,3.67543 0.577999,7.42988 2.128409,10.79115 1.83256,3.70622 5.06803,6.79833 8.98635,8.19676 2.60264,0.89949 5.42173,0.82272 8.12974,0.59337 5.89681,-0.62516 11.28782,-3.72884 15.43177,-7.87424 7.44781,-7.4177 12.56069,-17.08251 14.68822,-27.36437 0.79128,-3.71024 1.22668,-7.49179 1.38196,-11.28092 2.21541,-0.47133 4.18578,-1.81115 5.58008,-3.57812 2.13373,0.18772 4.28792,-0.42559 6.10742,-1.5293 2.93813,0.65902 5.82795,-0.76099 8.26172,-2.27344 4.0589,-2.64043 6.47493,-7.16896 7.54012,-11.79094 0.38433,-1.72224 0.73581,-3.48225 0.78274,-5.24418 -0.18771,-1.86337 -0.33887,-3.97056 -0.42247,-5.69144 -0.13144,-2.94815 -0.0619,-5.90379 0.24024,-8.83984 -0.78965,-0.8365 -1.68684,-1.79881 -2.95508,-1.63282 z m -19.22852,48.32813 c -2.47021,2.50415 -4.68283,5.24387 -6.91601,7.95703 -0.26783,1.26603 0.0191,2.69846 1.05336,3.54853 2.0318,2.15028 4.33345,4.18697 7.10484,5.30499 1.37006,0.49099 2.96027,-0.0626 3.75603,-1.27318 0.88536,-0.97795 1.77072,-1.95591 2.65608,-2.93386 1.87053,1.98814 4.14066,3.64432 6.65625,4.70508 1.45565,0.49524 2.961,-0.37362 3.78437,-1.56323 1.67769,-1.99277 3.43642,-3.93908 5.06413,-5.96048 0.49565,-1.11273 0.78055,-2.52623 -0.008,-3.56611 -2.62484,-1.99074 -5.2511,-3.98414 -7.7368,-6.14846 -0.73426,0.0486 -1.55545,-0.0972 -2.23465,0.0745 -1.40317,1.56873 -2.8044,3.13921 -4.20676,4.70867 -2.22135,-1.54043 -4.22739,-3.36363 -6.32852,-5.05234 -0.49475,-0.33007 -0.9893,-0.66044 -1.48398,-0.99062 -0.38672,0.39648 -0.77344,0.79296 -1.16016,1.18945 z" />
    </g>
    <text
       xml:space="preserve"
       style="font-style:normal;font-weight:normal;font-size:91.9707px;line-height:1.25;font-family:sans-serif;fill:#ffffff;fill-opacity:1;stroke:none;stroke-width:0.5;stroke-miterlimit:4;stroke-dasharray:none;stroke-opacity:0.5;"
       x="98.660484"
       y="199.2261"
       id="text48"
       inkscape:label="textNavees"><tspan
         sodipodi:role="line"
         id="tspan46"
         x="98.660484"
         y="199.2261"
         style="font-style:normal;font-variant:normal;font-weight:normal;font-stretch:normal;font-family:'Jameel Noori Nastaleeq';-inkscape-font-specification:'Jameel Noori Nastaleeq';fill:#ffffff;fill-opacity:1;stroke:none;stroke-width:0.5;stroke-miterlimit:4;stroke-dasharray:none;stroke-opacity:0.5;">نویس</tspan></text>
  </g>
</svg>
